<?xml version="1.0" encoding="UTF-8" standalone="no"?>
<svg
   viewBox="0 0 2910.2361 4535.4332"
   width="770mm"
   height="1200mm"
   version="1.1"
   id="svg75"
   sodipodi:docname="All CNC parts.svg"
   xml:space="preserve"
   inkscape:version="1.4 (e7c3feb1, 2024-10-09)"
   xmlns:inkscape="http://www.inkscape.org/namespaces/inkscape"
   xmlns:sodipodi="http://sodipodi.sourceforge.net/DTD/sodipodi-0.dtd"
   xmlns="http://www.w3.org/2000/svg"
   xmlns:svg="http://www.w3.org/2000/svg"><sodipodi:namedview
     id="namedview75"
     pagecolor="#505050"
     bordercolor="#eeeeee"
     borderopacity="1"
     inkscape:showpageshadow="0"
     inkscape:pageopacity="0"
     inkscape:pagecheckerboard="0"
     inkscape:deskcolor="#505050"
     inkscape:zoom="0.1341676"
     inkscape:cx="1367.6924"
     inkscape:cy="2478.2437"
     inkscape:window-width="1728"
     inkscape:window-height="982"
     inkscape:window-x="1920"
     inkscape:window-y="38"
     inkscape:window-maximized="1"
     inkscape:current-layer="svg75"
     inkscape:document-units="mm" /><desc
     id="desc1">Samlet alle dele CNC.dxf - scale = 1.000000, origin = (0.000000, 0.000000), method = manual</desc><defs
     id="defs4"><marker
       id="DistanceX"
       orient="auto"
       refX="0"
       refY="0"
       style="overflow:visible"><path
         d="M 3,-3 -3,3 M 0,-5 V 5"
         style="stroke:#000000;stroke-width:0.5"
         id="path1" /></marker><pattern
       id="Hatch"
       patternUnits="userSpaceOnUse"
       width="8"
       height="8"
       x="0"
       y="0"><path
         d="M8 4 l-4,4"
         stroke="#000000"
         stroke-width="0.25"
         linecap="square"
         id="path2" /><path
         d="M6 2 l-4,4"
         stroke="#000000"
         stroke-width="0.25"
         linecap="square"
         id="path3" /><path
         d="M4 0 l-4,4"
         stroke="#000000"
         stroke-width="0.25"
         linecap="square"
         id="path4" /></pattern><symbol
       id="*MODEL_SPACE" /><symbol
       id="*PAPER_SPACE" /><marker
       id="DistanceX-0"
       orient="auto"
       refX="0"
       refY="0"
       style="overflow:visible"><path
         d="M 3,-3 -3,3 M 0,-5 V 5"
         style="stroke:#000000;stroke-width:0.5"
         id="path1-5" /></marker><pattern
       id="Hatch-2"
       patternUnits="userSpaceOnUse"
       width="8"
       height="8"
       x="0"
       y="0"><path
         d="M8 4 l-4,4"
         stroke="#000000"
         stroke-width="0.25"
         linecap="square"
         id="path2-2" /><path
         d="M6 2 l-4,4"
         stroke="#000000"
         stroke-width="0.25"
         linecap="square"
         id="path3-7" /><path
         d="M4 0 l-4,4"
         stroke="#000000"
         stroke-width="0.25"
         linecap="square"
         id="path4-3" /></pattern><symbol
       id="*MODEL_SPACE-7" /><symbol
       id="*PAPER_SPACE-9" /></defs><g
     id="g95"
     inkscape:label="Drill"
     transform="translate(1917.1903,1500.4097)"><path
       d="m -716.06774,-113.11057 a 7.653545,7.653545 0 0 0 -15.30709,0 7.653545,7.653545 0 0 0 15.30709,0 z"
       style="vector-effect:non-scaling-stroke;fill:none;stroke:#ffff00;stroke-width:1;stroke-dasharray:none;-inkscape-stroke:hairline"
       id="path8" /><path
       d="m -790.83462,-670.44092 a 7.653545,7.653545 0 0 0 -15.30709,0 7.653545,7.653545 0 0 0 15.30709,0 z"
       style="vector-effect:non-scaling-stroke;fill:none;stroke:#ffff00;stroke-width:1;stroke-dasharray:none;-inkscape-stroke:hairline"
       id="path9" /><path
       d="m -841.0416,-113.02742 a 7.653545,7.653545 0 0 0 -15.30709,0 7.653545,7.653545 0 0 0 15.30709,0 z"
       style="vector-effect:non-scaling-stroke;fill:none;stroke:#ffff00;stroke-width:1;stroke-dasharray:none;-inkscape-stroke:hairline"
       id="path10" /><path
       d="m -847.52754,-670.44092 a 7.6535435,7.6535435 0 0 0 -15.30708,0 7.6535435,7.6535435 0 0 0 15.30708,0 z"
       style="vector-effect:non-scaling-stroke;fill:none;stroke:#ffff00;stroke-width:1;stroke-dasharray:none;-inkscape-stroke:hairline"
       id="path11" /><path
       d="m -841.0416,-385.62963 a 7.653545,7.653545 0 0 0 -15.30709,0 7.653545,7.653545 0 0 0 15.30709,0 z"
       style="vector-effect:non-scaling-stroke;fill:none;stroke:#ffff00;stroke-width:1;stroke-dasharray:none;-inkscape-stroke:hairline"
       id="path12" /><path
       d="m -1569.4135,627.82668 a 11.4331,11.4331 0 0 0 -22.8662,0 11.4331,11.4331 0 0 0 22.8662,0 z"
       style="vector-effect:non-scaling-stroke;fill:none;stroke:#ffff00;stroke-width:1;stroke-dasharray:none;-inkscape-stroke:hairline"
       id="path22" /><path
       d="m -889.10234,397.18101 a 11.433071,11.433071 0 0 0 -22.86614,0 11.433071,11.433071 0 0 0 22.86614,0 z"
       style="vector-effect:non-scaling-stroke;fill:none;stroke:#ffff00;stroke-width:1;stroke-dasharray:none;-inkscape-stroke:hairline"
       id="path23" /><path
       d="m -1229.2579,1138.063 a 11.4331,11.4331 0 0 0 -22.8662,0 11.4331,11.4331 0 0 0 22.8662,0 z"
       style="vector-effect:non-scaling-stroke;fill:none;stroke:#ffff00;stroke-width:1;stroke-dasharray:none;-inkscape-stroke:hairline"
       id="path24" /><path
       d="m -1229.2579,882.94475 a 11.4331,11.4331 0 0 0 -22.8662,0 11.4331,11.4331 0 0 0 22.8662,0 z"
       style="vector-effect:non-scaling-stroke;fill:none;stroke:#ffff00;stroke-width:1;stroke-dasharray:none;-inkscape-stroke:hairline"
       id="path25" /><path
       d="m -889.10234,423.82668 a 11.433071,11.433071 0 0 0 -22.86614,0 11.433071,11.433071 0 0 0 22.86614,0 z"
       style="vector-effect:non-scaling-stroke;fill:none;stroke:#ffff00;stroke-width:1;stroke-dasharray:none;-inkscape-stroke:hairline"
       id="path26" /><path
       d="m -1569.4135,423.82668 a 11.4331,11.4331 0 0 0 -22.8662,0 11.4331,11.4331 0 0 0 22.8662,0 z"
       style="vector-effect:non-scaling-stroke;fill:none;stroke:#ffff00;stroke-width:1;stroke-dasharray:none;-inkscape-stroke:hairline"
       id="path27" /><path
       d="m -1229.2579,627.82668 a 11.4331,11.4331 0 0 0 -22.8662,0 11.4331,11.4331 0 0 0 22.8662,0 z"
       style="vector-effect:non-scaling-stroke;fill:none;stroke:#ffff00;stroke-width:1;stroke-dasharray:none;-inkscape-stroke:hairline"
       id="path28" /><path
       d="m -889.10234,1138.063 a 11.433071,11.433071 0 0 0 -22.86614,0 11.433071,11.433071 0 0 0 22.86614,0 z"
       style="vector-effect:non-scaling-stroke;fill:none;stroke:#ffff00;stroke-width:1;stroke-dasharray:none;-inkscape-stroke:hairline"
       id="path29" /><path
       d="m -1569.4135,882.94475 a 11.4331,11.4331 0 0 0 -22.8662,0 11.4331,11.4331 0 0 0 22.8662,0 z"
       style="vector-effect:non-scaling-stroke;fill:none;stroke:#ffff00;stroke-width:1;stroke-dasharray:none;-inkscape-stroke:hairline"
       id="path30" /><path
       d="m -1569.4135,1138.063 a 11.4331,11.4331 0 0 0 -22.8662,0 11.4331,11.4331 0 0 0 22.8662,0 z"
       style="vector-effect:non-scaling-stroke;fill:none;stroke:#ffff00;stroke-width:1;stroke-dasharray:none;-inkscape-stroke:hairline"
       id="path31" /><path
       d="m -889.10234,882.94475 a 11.433071,11.433071 0 0 0 -22.86614,0 11.433071,11.433071 0 0 0 22.86614,0 z"
       style="vector-effect:non-scaling-stroke;fill:none;stroke:#ffff00;stroke-width:1;stroke-dasharray:none;-inkscape-stroke:hairline"
       id="path32" /><path
       d="m -889.10234,627.82668 a 11.433071,11.433071 0 0 0 -22.86614,0 11.433071,11.433071 0 0 0 22.86614,0 z"
       style="vector-effect:non-scaling-stroke;fill:none;stroke:#ffff00;stroke-width:1;stroke-dasharray:none;-inkscape-stroke:hairline"
       id="path33" /><path
       d="m -1569.4135,397.18101 a 11.4331,11.4331 0 0 0 -22.8662,0 11.4331,11.4331 0 0 0 22.8662,0 z"
       style="vector-effect:non-scaling-stroke;fill:none;stroke:#ffff00;stroke-width:1;stroke-dasharray:none;-inkscape-stroke:hairline"
       id="path34" /><path
       d="m -1661.9212,2062.1612 a 11.4331,11.4331 0 0 0 -22.8662,0 11.4331,11.4331 0 0 0 22.8662,0 z"
       style="vector-effect:non-scaling-stroke;fill:none;stroke:#ffff00;stroke-width:1;stroke-dasharray:none;-inkscape-stroke:hairline"
       id="path36" /><path
       d="m -1457.9212,2402.3168 a 11.4331,11.4331 0 0 0 -22.8662,0 11.4331,11.4331 0 0 0 22.8662,0 z"
       style="vector-effect:non-scaling-stroke;fill:none;stroke:#ffff00;stroke-width:1;stroke-dasharray:none;-inkscape-stroke:hairline"
       id="path37" /><path
       d="m -1202.8031,2742.4724 a 11.4331,11.4331 0 0 0 -22.8662,0 11.4331,11.4331 0 0 0 22.8662,0 z"
       style="vector-effect:non-scaling-stroke;fill:none;stroke:#ffff00;stroke-width:1;stroke-dasharray:none;-inkscape-stroke:hairline"
       id="path38" /><path
       d="m -1457.9212,2742.4724 a 11.4331,11.4331 0 0 0 -22.8662,0 11.4331,11.4331 0 0 0 22.8662,0 z"
       style="vector-effect:non-scaling-stroke;fill:none;stroke:#ffff00;stroke-width:1;stroke-dasharray:none;-inkscape-stroke:hairline"
       id="path39" /><path
       d="m -1202.8031,2402.3168 a 11.4331,11.4331 0 0 0 -22.8662,0 11.4331,11.4331 0 0 0 22.8662,0 z"
       style="vector-effect:non-scaling-stroke;fill:none;stroke:#ffff00;stroke-width:1;stroke-dasharray:none;-inkscape-stroke:hairline"
       id="path40" /><path
       d="m -1457.9212,2062.1612 a 11.4331,11.4331 0 0 0 -22.8662,0 11.4331,11.4331 0 0 0 22.8662,0 z"
       style="vector-effect:non-scaling-stroke;fill:none;stroke:#ffff00;stroke-width:1;stroke-dasharray:none;-inkscape-stroke:hairline"
       id="path41" /><path
       d="m -947.68502,2062.1612 a 11.433071,11.433071 0 0 0 -22.86614,0 11.433071,11.433071 0 0 0 22.86614,0 z"
       style="vector-effect:non-scaling-stroke;fill:none;stroke:#ffff00;stroke-width:1;stroke-dasharray:none;-inkscape-stroke:hairline"
       id="path42" /><path
       d="m -1688.5669,2062.1612 a 11.4331,11.4331 0 0 0 -22.8662,0 11.4331,11.4331 0 0 0 22.8662,0 z"
       style="vector-effect:non-scaling-stroke;fill:none;stroke:#ffff00;stroke-width:1;stroke-dasharray:none;-inkscape-stroke:hairline"
       id="path43" /><path
       d="m -1688.5669,2742.4724 a 11.4331,11.4331 0 0 0 -22.8662,0 11.4331,11.4331 0 0 0 22.8662,0 z"
       style="vector-effect:non-scaling-stroke;fill:none;stroke:#ffff00;stroke-width:1;stroke-dasharray:none;-inkscape-stroke:hairline"
       id="path44" /><path
       d="m -947.68502,2742.4724 a 11.433071,11.433071 0 0 0 -22.86614,0 11.433071,11.433071 0 0 0 22.86614,0 z"
       style="vector-effect:non-scaling-stroke;fill:none;stroke:#ffff00;stroke-width:1;stroke-dasharray:none;-inkscape-stroke:hairline"
       id="path45" /><path
       d="m -1661.9212,2742.4724 a 11.4331,11.4331 0 0 0 -22.8662,0 11.4331,11.4331 0 0 0 22.8662,0 z"
       style="vector-effect:non-scaling-stroke;fill:none;stroke:#ffff00;stroke-width:1;stroke-dasharray:none;-inkscape-stroke:hairline"
       id="path46" /><path
       d="m -947.68502,2402.3168 a 11.433071,11.433071 0 0 0 -22.86614,0 11.433071,11.433071 0 0 0 22.86614,0 z"
       style="vector-effect:non-scaling-stroke;fill:none;stroke:#ffff00;stroke-width:1;stroke-dasharray:none;-inkscape-stroke:hairline"
       id="path47" /><path
       d="m -1202.8031,2062.1612 a 11.4331,11.4331 0 0 0 -22.8662,0 11.4331,11.4331 0 0 0 22.8662,0 z"
       style="vector-effect:non-scaling-stroke;fill:none;stroke:#ffff00;stroke-width:1;stroke-dasharray:none;-inkscape-stroke:hairline"
       id="path48" /><path
       d="m 297.79243,788.33365 a 7.653545,7.653545 0 0 0 -15.30709,0 7.653545,7.653545 0 0 0 15.30709,0 z"
       style="vector-effect:non-scaling-stroke;fill:none;stroke:#ffff00;stroke-width:1;stroke-dasharray:none;-inkscape-stroke:hairline"
       id="path60" /><path
       d="m 108.56982,93.14676 a 7.653545,7.653545 0 0 0 -15.30709,0 7.653545,7.653545 0 0 0 15.30709,0 z"
       style="vector-effect:non-scaling-stroke;fill:none;stroke:#ffff00;stroke-width:1;stroke-dasharray:none;-inkscape-stroke:hairline"
       id="path61" /><path
       d="m 297.79243,93.14676 a 7.653545,7.653545 0 0 0 -15.30709,0 7.653545,7.653545 0 0 0 15.30709,0 z"
       style="vector-effect:non-scaling-stroke;fill:none;stroke:#ffff00;stroke-width:1;stroke-dasharray:none;-inkscape-stroke:hairline"
       id="path62" /><path
       d="m 108.56982,788.33365 a 7.653545,7.653545 0 0 0 -15.30709,0 7.653545,7.653545 0 0 0 15.30709,0 z"
       style="vector-effect:non-scaling-stroke;fill:none;stroke:#ffff00;stroke-width:1;stroke-dasharray:none;-inkscape-stroke:hairline"
       id="path63" /><path
       d="m 297.79243,977.55625 a 7.653545,7.653545 0 0 0 -15.30709,0 7.653545,7.653545 0 0 0 15.30709,0 z"
       style="vector-effect:non-scaling-stroke;fill:none;stroke:#ffff00;stroke-width:1;stroke-dasharray:none;-inkscape-stroke:hairline"
       id="path64" /><path
       d="m 108.56982,-96.07585 a 7.653545,7.653545 0 0 0 -15.30709,0 7.653545,7.653545 0 0 0 15.30709,0 z"
       style="vector-effect:non-scaling-stroke;fill:none;stroke:#ffff00;stroke-width:1;stroke-dasharray:none;-inkscape-stroke:hairline"
       id="path65" /><path
       d="m 297.79243,-96.07585 a 7.653545,7.653545 0 0 0 -15.30709,0 7.653545,7.653545 0 0 0 15.30709,0 z"
       style="vector-effect:non-scaling-stroke;fill:none;stroke:#ffff00;stroke-width:1;stroke-dasharray:none;-inkscape-stroke:hairline"
       id="path66" /><path
       d="m 108.56982,977.55625 a 7.653545,7.653545 0 0 0 -15.30709,0 7.653545,7.653545 0 0 0 15.30709,0 z"
       style="vector-effect:non-scaling-stroke;fill:none;stroke:#ffff00;stroke-width:1;stroke-dasharray:none;-inkscape-stroke:hairline"
       id="path67" /><path
       d="m 917.6422,977.43305 a 7.65355,7.65355 0 0 0 -15.3071,0 7.65355,7.65355 0 0 0 15.3071,0 z"
       style="vector-effect:non-scaling-stroke;fill:none;stroke:#ffff00;stroke-width:1;stroke-dasharray:none;-inkscape-stroke:hairline"
       id="path70" /><path
       d="m 849.35,977.43305 a 7.65355,7.65355 0 0 0 -15.3071,0 7.65355,7.65355 0 0 0 15.3071,0 z"
       style="vector-effect:non-scaling-stroke;fill:none;stroke:#ffff00;stroke-width:1;stroke-dasharray:none;-inkscape-stroke:hairline"
       id="path71" /><path
       d="m 917.6422,977.43305 a 7.65355,7.65355 0 0 0 -15.3071,0 7.65355,7.65355 0 0 0 15.3071,0 z"
       style="vector-effect:non-scaling-stroke;fill:none;stroke:#ffff00;stroke-width:1;stroke-dasharray:none;-inkscape-stroke:hairline"
       id="path76" /><path
       d="m 849.35,977.43305 a 7.65355,7.65355 0 0 0 -15.3071,0 7.65355,7.65355 0 0 0 15.3071,0 z"
       style="vector-effect:non-scaling-stroke;fill:none;stroke:#ffff00;stroke-width:1;stroke-dasharray:none;-inkscape-stroke:hairline"
       id="path77" /><path
       d="m 108.56982,977.55625 a 7.653545,7.653545 0 0 0 -15.30709,0 7.653545,7.653545 0 0 0 15.30709,0 z"
       style="vector-effect:non-scaling-stroke;fill:none;stroke:#ffff00;stroke-width:1;stroke-dasharray:none;-inkscape-stroke:hairline"
       id="path79" /><path
       d="m 297.79243,-96.07585 a 7.653545,7.653545 0 0 0 -15.30709,0 7.653545,7.653545 0 0 0 15.30709,0 z"
       style="vector-effect:non-scaling-stroke;fill:none;stroke:#ffff00;stroke-width:1;stroke-dasharray:none;-inkscape-stroke:hairline"
       id="path80" /><path
       d="m 108.56982,-96.07585 a 7.653545,7.653545 0 0 0 -15.30709,0 7.653545,7.653545 0 0 0 15.30709,0 z"
       style="vector-effect:non-scaling-stroke;fill:none;stroke:#ffff00;stroke-width:1;stroke-dasharray:none;-inkscape-stroke:hairline"
       id="path81" /><path
       d="m 297.79243,977.55625 a 7.653545,7.653545 0 0 0 -15.30709,0 7.653545,7.653545 0 0 0 15.30709,0 z"
       style="vector-effect:non-scaling-stroke;fill:none;stroke:#ffff00;stroke-width:1;stroke-dasharray:none;-inkscape-stroke:hairline"
       id="path82" /><path
       d="m 108.56982,788.33365 a 7.653545,7.653545 0 0 0 -15.30709,0 7.653545,7.653545 0 0 0 15.30709,0 z"
       style="vector-effect:non-scaling-stroke;fill:none;stroke:#ffff00;stroke-width:1;stroke-dasharray:none;-inkscape-stroke:hairline"
       id="path83" /><path
       d="m 297.79243,93.14676 a 7.653545,7.653545 0 0 0 -15.30709,0 7.653545,7.653545 0 0 0 15.30709,0 z"
       style="vector-effect:non-scaling-stroke;fill:none;stroke:#ffff00;stroke-width:1;stroke-dasharray:none;-inkscape-stroke:hairline"
       id="path84" /><path
       d="m 108.56982,93.14676 a 7.653545,7.653545 0 0 0 -15.30709,0 7.653545,7.653545 0 0 0 15.30709,0 z"
       style="vector-effect:non-scaling-stroke;fill:none;stroke:#ffff00;stroke-width:1;stroke-dasharray:none;-inkscape-stroke:hairline"
       id="path85" /><path
       d="m 297.79243,788.33365 a 7.653545,7.653545 0 0 0 -15.30709,0 7.653545,7.653545 0 0 0 15.30709,0 z"
       style="vector-effect:non-scaling-stroke;fill:none;stroke:#ffff00;stroke-width:1;stroke-dasharray:none;-inkscape-stroke:hairline"
       id="path86" /></g><g
     id="g94"
     inkscape:label="Cut"
     style="display:inline"
     transform="translate(1917.1903,1500.4097)"><path
       d="m -766.36205,-354.85165 v 124.72441 h -70.29921 v -124.72441 z"
       style="vector-effect:non-scaling-stroke;fill:none;stroke:#ff0000;stroke-width:1;stroke-dasharray:none;-inkscape-stroke:hairline"
       id="path14" /><path
       d="m -771.51898,-165.29081 a 28.346457,28.346457 0 0 0 -56.69291,0 28.346457,28.346457 0 0 0 56.69291,0 z"
       style="vector-effect:non-scaling-stroke;fill:none;stroke:#ff0000;stroke-width:1;stroke-dasharray:none;-inkscape-stroke:hairline"
       id="path15" /><path
       d="m -1532.9764,1559.4803 a 11.338583,11.338583 0 0 0 -11.3385,11.3386 v 22.6771 a 11.338583,11.338583 0 0 0 11.3385,11.3386 h 493.8583 a 11.338583,11.338583 0 0 0 11.3386,-11.3386 v -22.6771 a 11.338583,11.338583 0 0 0 -11.3386,-11.3386 z"
       style="vector-effect:non-scaling-stroke;fill:none;stroke:#ff0000;stroke-width:1;stroke-dasharray:none;-inkscape-stroke:hairline"
       id="path17" /><path
       d="m -1528.4687,289.36999 a 11.338592,11.338592 0 0 0 -16.0352,16.03518 v 13.66192 a 11.338592,11.338592 0 0 0 16.0352,16.03518 h 484.843 a 11.338592,11.338592 0 0 0 16.0352,-16.03518 v -13.66192 a 11.338592,11.338592 0 0 0 -16.0352,-16.03518 z"
       style="vector-effect:non-scaling-stroke;fill:none;stroke:#ff0000;stroke-width:1;stroke-dasharray:none;-inkscape-stroke:hairline"
       id="path18" /><path
       d="m -1528.4687,1468.5826 a 11.338599,11.338599 0 1 0 -16.0352,16.0352 v 13.6619 a 11.338599,11.338599 0 1 0 16.0352,16.0352 h 484.843 a 11.338599,11.338599 0 0 0 16.0352,-16.0352 v -13.6619 a 11.338599,11.338599 0 0 0 -16.0352,-16.0352 z"
       style="vector-effect:non-scaling-stroke;fill:none;stroke:#ff0000;stroke-width:1;stroke-dasharray:none;-inkscape-stroke:hairline"
       id="path19" /><path
       d="M -1853.1653,681.90175 V 350.7595 a 11.338583,11.338583 0 0 1 16.0351,-16.03518 h 13.662 a 11.338583,11.338583 0 0 1 16.0351,16.03518 v 331.14225 a 11.338583,11.338583 0 0 1 -16.0351,16.0352 h -13.662 a 11.338583,11.338583 0 1 1 -16.0351,-16.0352 z"
       style="vector-effect:non-scaling-stroke;fill:none;stroke:#ff0000;stroke-width:1;stroke-dasharray:none;-inkscape-stroke:hairline"
       id="path20" /><path
       d="m -1853.1653,1452.9254 a 11.338583,11.338583 0 0 0 16.0351,16.0352 h 13.662 a 11.338583,11.338583 0 0 0 16.0351,-16.0352 v -331.1422 a 11.338583,11.338583 0 0 0 -16.0351,-16.0352 h -13.662 a 11.338583,11.338583 0 0 0 -16.0351,16.0352 z"
       style="vector-effect:non-scaling-stroke;fill:none;stroke:#ff0000;stroke-width:1;stroke-dasharray:none;-inkscape-stroke:hairline"
       id="path21" /><path
       d="m -1778.1139,2615.4173 a 11.338599,11.338599 0 0 0 16.0352,-16.0352 v -484.843 a 11.338599,11.338599 0 0 0 -16.0352,-16.0352 h -13.6619 a 11.338599,11.338599 0 0 0 -16.0352,16.0352 v 484.843 a 11.338599,11.338599 0 1 0 16.0352,16.0352 z"
       style="vector-effect:non-scaling-stroke;fill:none;stroke:#ff0000;stroke-width:1;stroke-dasharray:none;-inkscape-stroke:hairline"
       id="path49" /><path
       d="m -644.25563,1835.5747 h -331.14224 a 11.338592,11.338592 0 0 1 -16.03518,-16.0351 v -13.6619 a 11.338592,11.338592 0 0 1 16.03518,-16.0352 h 331.14224 a 11.338592,11.338592 0 0 1 16.03518,16.0352 v 13.6619 a 11.338592,11.338592 0 0 1 -16.03518,16.0351 z"
       style="vector-effect:non-scaling-stroke;fill:none;stroke:#ff0000;stroke-width:1;stroke-dasharray:none;-inkscape-stroke:hairline"
       id="path50" /><path
       d="m -503.68502,2615.2283 a 11.338583,11.338583 0 0 0 11.33858,-11.3386 v -493.8582 a 11.338583,11.338583 0 0 0 -11.33858,-11.3386 h -22.67716 a 11.338583,11.338583 0 0 0 -11.33859,11.3386 v 493.8582 a 11.338583,11.338583 0 0 0 11.33859,11.3386 z"
       style="vector-effect:non-scaling-stroke;fill:none;stroke:#ff0000;stroke-width:1;stroke-dasharray:none;-inkscape-stroke:hairline"
       id="path51" /><path
       d="m -1746.4215,1789.8425 h 331.1422 a 11.338599,11.338599 0 0 1 16.0352,16.0352 v 13.6619 a 11.338592,11.338592 0 0 1 -16.0352,16.0351 h -331.1422 a 11.338599,11.338599 0 0 1 -16.0352,-16.0351 v -13.6619 a 11.338599,11.338599 0 0 1 16.0352,-16.0352 z"
       style="vector-effect:non-scaling-stroke;fill:none;stroke:#ff0000;stroke-width:1;stroke-dasharray:none;-inkscape-stroke:hairline"
       id="path52" /><path
       d="m -582.86612,2114.539 v 484.843 a 11.338592,11.338592 0 0 1 -16.03518,16.0352 h -13.66193 a 11.338588,11.338588 0 0 1 -16.03517,-16.0352 v -484.843 a 11.338588,11.338588 0 0 1 16.03517,-16.0351 h 13.66193 a 11.338592,11.338592 0 0 1 16.03518,16.0351 z"
       style="vector-effect:non-scaling-stroke;fill:none;stroke:#ff0000;stroke-width:1;stroke-dasharray:none;-inkscape-stroke:hairline"
       id="path53" /><path
       d="m -69.18194,2610.1891 a 28.346457,28.346457 0 0 0 -56.69291,0 28.346457,28.346457 0 0 0 56.69291,0 z"
       style="vector-effect:non-scaling-stroke;fill:none;stroke:#ff0000;stroke-width:1;stroke-dasharray:none;-inkscape-stroke:hairline"
       id="path56" /><path
       d="m 896.6299,977.43305 a 20.787402,20.787402 0 0 0 -41.5748,0 20.787402,20.787402 0 0 0 41.5748,0 z"
       style="vector-effect:non-scaling-stroke;fill:none;stroke:#ff0000;stroke-width:1;stroke-dasharray:none;-inkscape-stroke:hairline"
       id="path78" /><path
       d="m 299.46459,882.94495 a 103.93701,103.93701 0 0 0 -207.87402,0 103.93701,103.93701 0 0 0 207.87402,0 z"
       style="vector-effect:non-scaling-stroke;fill:none;stroke:#ff0000;stroke-width:1;stroke-dasharray:none;-inkscape-stroke:hairline"
       id="path87" /><path
       d="m 299.46459,-1.46454 a 103.93701,103.93701 0 0 0 -207.87402,0 103.93701,103.93701 0 0 0 207.87402,0 z"
       style="vector-effect:non-scaling-stroke;fill:none;stroke:#ff0000;stroke-width:1;stroke-dasharray:none;-inkscape-stroke:hairline"
       id="path88" /></g><g
     id="g92"
     inkscape:label="Out cut"
     style="display:inline"
     transform="translate(1917.1903,1500.4097)"><path
       d="m -1807.622,-897.55535 a 11.338592,11.338592 0 0 0 -16.0352,-16.03518 h -29.3192 v -486.29917 h 292.6263 a 11.338599,11.338599 0 0 0 16.0352,-16.0352 v -29.3191 h 516.5354 v 29.3191 a 11.338599,11.338599 0 0 0 16.0352,16.0352 h 337.98054 V 59.0079 h -337.98054 a 11.338592,11.338592 0 0 0 -16.0352,16.03518 v 29.31915 h -516.5354 V 75.04308 a 11.338592,11.338592 0 0 0 -16.0352,-16.03518 h -292.6263 v -486.29921 h 29.3192 a 11.338592,11.338592 0 0 0 16.0352,-16.03518 z"
       style="vector-effect:non-scaling-stroke;fill:none;stroke:#ff00ff;stroke-width:1;stroke-dasharray:none;-inkscape-stroke:hairline"
       id="path13" /><path
       d="m -1898.3307,1582.1574 a 22.677165,22.677165 0 0 0 22.6772,22.6772 h 274.6456 a 11.338583,11.338583 0 0 1 11.3386,11.3386 v 11.3386 a 22.677165,22.677165 0 0 0 22.6772,22.6771 h 561.8898 a 22.677165,22.677165 0 0 0 22.67712,-22.6771 v -11.3386 a 11.338583,11.338583 0 0 1 11.33859,-11.3386 h 274.64567 a 22.677165,22.677165 0 0 0 22.67716,-22.6772 V 221.52747 a 22.677165,22.677165 0 0 0 -22.67716,-22.67717 h -274.64567 a 11.338583,11.338583 0 0 0 -11.33859,11.33859 v 11.33858 a 22.677165,22.677165 0 0 1 -22.67712,22.67716 h -561.8898 a 22.677165,22.677165 0 0 1 -22.6772,-22.67716 v -11.33858 a 11.338583,11.338583 0 0 0 -11.3386,-11.33859 h -274.6456 a 22.677165,22.677165 0 0 0 -22.6772,22.67717 z"
       style="vector-effect:non-scaling-stroke;fill:none;stroke:#ff00ff;stroke-width:1;stroke-dasharray:none;-inkscape-stroke:hairline"
       id="path16" /><path
       d="m -1875.6535,1744.677 a 22.677165,22.677165 0 0 0 -22.6772,22.6772 V 2042 a 11.338583,11.338583 0 0 0 11.3386,11.3384 h 11.3386 a 22.677165,22.677165 0 0 1 22.6771,22.6772 v 561.8898 a 22.677165,22.677165 0 0 1 -22.6771,22.6771 h -11.3386 a 11.338583,11.338583 0 0 0 -11.3386,11.3386 v 274.6457 a 22.677165,22.677165 0 0 0 22.6772,22.6772 h 1360.6299 a 22.677165,22.677165 0 0 0 22.67716,-22.6772 v -274.6457 a 11.338583,11.338583 0 0 1 11.33859,-11.3386 h 11.33858 a 22.677165,22.677165 0 0 0 22.67716,-22.6771 v -561.8898 a 22.677165,22.677165 0 0 0 -22.67716,-22.6771 h -11.33858 A 11.338583,11.338583 0 0 1 -492.34644,2042 v -274.6457 a 22.677165,22.677165 0 0 0 -22.67716,-22.6772 z"
       style="vector-effect:non-scaling-stroke;fill:none;stroke:#ff00ff;stroke-width:1;stroke-dasharray:none;-inkscape-stroke:hairline"
       id="path54" /><path
       id="path55"
       style="vector-effect:non-scaling-stroke;fill:none;stroke:#ff00ff;stroke-width:1;stroke-dasharray:none;-inkscape-stroke:hairline"
       d="m 145.13477,1147.5117 v 29.3184 a 11.338592,11.338592 0 0 1 -16.03516,16.0351 h -337.98242 v 142.6778 h 40.6582 a 11.338588,11.338588 0 0 1 16.03516,16.0351 v 160.6856 a 11.338588,11.338588 0 1 1 -16.03516,16.0351 h -40.6582 v 788.0313 h 40.6582 a 11.338588,11.338588 0 0 1 16.03516,16.0351 v 160.6856 a 11.338588,11.338588 0 1 1 -16.03516,16.0351 h -40.6582 v 13.5606 129.1172 h 70.8125 84.423826 74.027343 108.718751 a 11.338592,11.338592 0 0 1 16.03516,16.0351 v 29.3203 h 516.53515 v -29.3203 a 11.338583,11.338583 0 0 1 16.03516,-16.0351 h 292.625 v -486.2989 h -29.31836 a 11.338583,11.338583 0 0 1 -16.03516,-16.0351 v -454.2285 a 11.338599,11.338599 0 1 1 16.03516,-16.0352 h 29.31836 v -486.3008 h -292.625 a 11.338599,11.338599 0 1 1 -16.03516,-16.0351 v -29.3184 z" /><path
       d="M 970.3307,-1445.2441 H 782.2992 v 40.6577 a 11.338583,11.338583 0 0 1 -16.0351,16.0352 H 605.5785 a 11.338599,11.338599 0 0 1 -16.0352,-16.0352 v -40.6577 h -788.03147 v 40.6577 a 11.338592,11.338592 0 0 1 -16.03518,16.0352 H -375.2089 a 11.338591,11.338591 0 0 1 -16.03517,-16.0352 v -40.6577 h -188.0315 V -266.03147 H 970.3307 Z"
       style="vector-effect:non-scaling-stroke;fill:none;stroke:#ff00ff;stroke-width:1;stroke-dasharray:none;-inkscape-stroke:hairline"
       id="path72" /><path
       d="M -63.6572,1007.6693 H -579.27557 V 644.83465 h 29.31915 a 11.338583,11.338583 0 0 0 16.03518,-16.03516 V 252.68087 a 11.338585,11.338585 0 0 0 -16.03518,-16.03518 h -29.31915 V -126.18895 H -63.6572 a 11.338583,11.338583 0 0 0 16.03517,-16.03518 v -29.31915 h 486.29922 v 29.31915 a 11.338583,11.338583 0 0 0 16.03517,16.03518 H 970.3307 v 362.83464 h -29.3191 a 11.338592,11.338592 0 0 0 -16.0352,16.03518 v 376.11862 a 11.338585,11.338585 0 0 0 16.0352,16.03516 h 29.3191 V 1007.6693 H 454.71236 a 11.338583,11.338583 0 0 0 -16.03517,16.0351 v 29.3192 H -47.62203 v -29.3192 a 11.338583,11.338583 0 0 0 -16.03517,-16.0351 z"
       style="vector-effect:non-scaling-stroke;fill:none;stroke:#ff00ff;stroke-width:1;stroke-dasharray:none;-inkscape-stroke:hairline"
       id="path89" /></g><g
     id="g93"
     inkscape:label="Pocket"
     style="display:inline"
     transform="translate(1917.1903,1500.4097)"><path
       id="path90"
       style="vector-effect:non-scaling-stroke;fill:none;stroke:#00ffff;stroke-width:1;stroke-dasharray:none;-inkscape-stroke:hairline"
       d="m 863.55859,-126.18945 v 535.74804 a 18.897638,18.897638 0 0 1 -18.89648,18.89844 H 294.74023 a 11.338583,11.338583 0 0 1 -11.33789,-11.33984 v -1.88867 a 5.669291,5.669291 0 0 0 -5.66992,-5.66993 H 219.15039 A 11.338583,11.338583 0 0 1 207.81055,398.2207 V 108.25195 a 7.559055,7.559055 0 0 1 6.21484,-7.43945 103.93701,103.93701 0 0 0 -0.0215,-0.24414 103.93701,103.93701 0 0 1 -36.95118,0 103.93701,103.93701 0 0 0 -0.0215,0.24414 7.559055,7.559055 0 0 1 6.21289,7.43945 v 664.97657 a 7.559055,7.559055 0 0 1 -6.21289,7.43945 103.93701,103.93701 0 0 0 1.64258,0 103.93701,103.93701 0 0 1 33.70898,0 103.93701,103.93701 0 0 0 1.64258,0 7.559055,7.559055 0 0 1 -6.21484,-7.43945 V 483.25977 a 11.338583,11.338583 0 0 1 11.33984,-11.33789 h 58.58203 a 5.669291,5.669291 0 0 0 5.66992,-5.66993 v -1.89062 a 11.338583,11.338583 0 0 1 11.33789,-11.33789 h 549.92188 a 18.897638,18.897638 0 0 1 18.89648,18.89844 v 474.33007 a 9.448819,9.448819 0 0 1 -9.44921,9.44922 h -19.8418 a 7.559055,7.559055 0 0 0 -7.5586,7.5586 v 36.84963 a 7.559055,7.559055 0 0 0 7.5586,7.5605 h 83.15039 a 7.559055,7.559055 0 0 0 7.55859,-7.5605 v -36.84963 a 7.559055,7.559055 0 0 0 -7.55859,-7.5586 h -19.84375 a 9.448819,9.448819 0 0 1 -9.44727,-9.44922 v -1072.4414 z m -668.03125,20.78711 a 103.93701,103.93701 0 0 0 -0.0254,0.29101 103.93701,103.93701 0 0 1 0.0508,0 103.93701,103.93701 0 0 0 -0.0254,-0.29101 z m 737.4668,338.72851 a 11.338592,11.338592 0 0 0 -1.71875,0.71289 11.338592,11.338592 0 0 1 9.73633,2.60742 11.338592,11.338592 0 0 0 -8.01758,-3.32031 z m -4.34961,1.80274 a 11.338592,11.338592 0 0 0 -5.18555,5.1875 11.338592,11.338592 0 0 1 5.18555,-5.1875 z m -6.27344,7.8164 a 11.338592,11.338592 0 0 0 2.60547,9.73633 11.338592,11.338592 0 0 1 -2.60547,-9.73633 z m 2.60547,385.85352 a 11.338585,11.338585 0 0 0 -2.60547,9.73633 11.338585,11.338585 0 0 1 2.60547,-9.73633 z m -1.51758,12.36523 a 11.338585,11.338585 0 0 0 5.1836,5.18555 11.338585,11.338585 0 0 1 -5.1836,-5.18555 z" /><path
       d="m -763.2274,-165.29081 a 36.638035,36.638035 0 0 0 -73.27607,0 36.638035,36.638035 0 0 0 73.27607,0 z"
       style="vector-effect:non-scaling-stroke;fill:none;stroke:#00ffff;stroke-width:1;stroke-dasharray:none;-inkscape-stroke:hairline"
       id="path6" /><path
       d="m -739.14945,-345.61962 a 11.338585,11.338585 0 0 0 -16.03518,-16.03518 h -99.4572 a 11.338585,11.338585 0 0 0 -16.03518,16.03518 v 106.26035 a 11.338585,11.338585 0 0 0 16.03518,16.03518 h 99.4572 a 11.338585,11.338585 0 0 0 16.03518,-16.03518 z"
       style="vector-effect:non-scaling-stroke;fill:none;stroke:#00ffff;stroke-width:1;stroke-dasharray:none;-inkscape-stroke:hairline"
       id="path7" /><path
       d="m -1317.2283,2843.5747 a 18.897638,18.897638 0 0 0 18.8976,-18.8977 v -459.685 h -23.622 a 9.92126,9.92126 0 0 1 -9.9213,-9.9213 v -71.811 a 9.92126,9.92126 0 0 1 9.9213,-9.9213 h 71.811 a 9.92126,9.92126 0 0 1 9.9212,9.9213 v 71.811 a 9.92126,9.92126 0 0 1 -9.9212,9.9213 h -23.6221 v 459.685 a 18.897638,18.897638 0 0 0 18.8977,18.8977 h 626.45667 v 24.5669 H -1762.2677 v -24.5669 z"
       style="vector-effect:non-scaling-stroke;fill:none;stroke:#00ffff;stroke-width:1;stroke-dasharray:none;-inkscape-stroke:hairline"
       id="path35" /><path
       d="m -208.88187,2316.3308 v 192.7559 h 40.65774 a 11.338588,11.338588 0 0 0 16.03517,-16.0352 V 2332.366 a 11.338588,11.338588 0 0 0 -16.03517,-16.0352 z"
       style="vector-effect:non-scaling-stroke;fill:none;stroke:#00ffff;stroke-width:1;stroke-dasharray:none;-inkscape-stroke:hairline"
       id="path57" /><path
       d="m -208.88187,1335.5434 v 192.7559 h 40.65774 a 11.338588,11.338588 0 0 0 16.03517,-16.0352 v -160.6855 a 11.338588,11.338588 0 0 0 -16.03517,-16.0352 z"
       style="vector-effect:non-scaling-stroke;fill:none;stroke:#00ffff;stroke-width:1;stroke-dasharray:none;-inkscape-stroke:hairline"
       id="path58" /><path
       d="m -198.48817,-1445.2441 h -192.7559 v 40.6577 a 11.338591,11.338591 0 1 0 16.03517,16.0352 h 160.68555 a 11.338592,11.338592 0 0 0 16.03518,-16.0352 z"
       style="vector-effect:non-scaling-stroke;fill:none;stroke:#00ffff;stroke-width:1;stroke-dasharray:none;-inkscape-stroke:hairline"
       id="path73" /><path
       d="M 782.2992,-1445.2441 H 589.5433 v 40.6577 a 11.338599,11.338599 0 0 0 16.0352,16.0352 h 160.6856 a 11.338583,11.338583 0 0 0 16.0351,-16.0352 z"
       style="vector-effect:non-scaling-stroke;fill:none;stroke:#00ffff;stroke-width:1;stroke-dasharray:none;-inkscape-stroke:hairline"
       id="path74" /><path
       d="M -794.70864,-2.40942 H -1815.1811 V 22.1575 h 1020.47246 z"
       style="display:inline;vector-effect:non-scaling-stroke;fill:none;stroke:#00ffff;stroke-width:1;stroke-dasharray:none;-inkscape-stroke:hairline"
       id="path75" /><path
       id="rect91"
       style="vector-effect:non-scaling-stroke;fill:none;fill-rule:evenodd;stroke:#00ffff;stroke-width:1;stroke-linecap:square;stroke-dasharray:none;-inkscape-stroke:hairline;paint-order:stroke fill markers"
       d="m -138.73438,2556.4844 a 8.503937,8.503937 0 0 0 -2.47851,16.0215 v 24.9082 a 11.905512,11.905512 0 0 0 -0.375,17.7636 11.338583,11.338583 0 0 0 0.375,1.4336 v 31.4278 a 3.779528,3.779528 0 0 0 3.14258,3.7246 h 84.423826 a 3.779528,3.779528 0 0 0 3.142578,-3.7246 v -29.7305 a 11.338583,11.338583 0 0 0 1.236328,-4.0195 11.905512,11.905512 0 0 0 -1.236328,-16.875 v -24.9082 a 8.503937,8.503937 0 1 0 -11.398438,-11.3965 h -67.912106 a 8.503937,8.503937 0 0 0 -8.91993,-4.625 z" /></g></svg>
